<svg width="542" height="137" viewBox="0 0 542 137" fill="none" xmlns="http://www.w3.org/2000/svg">
<path d="M164.377 85V44.0177H151.721V36.1491H185.819V44.0177H173.36V85H164.377ZM202.846 85.7869C199.174 85.7869 195.961 84.9563 193.207 83.2951C190.453 81.634 188.311 79.3827 186.781 76.5413C185.251 73.6998 184.486 70.5524 184.486 67.0989C184.486 63.5143 185.251 60.345 186.781 57.591C188.355 54.7933 190.475 52.5857 193.142 50.9683C195.852 49.3509 198.868 48.5421 202.19 48.5421C204.988 48.5421 207.436 49.0011 209.535 49.9192C211.677 50.8372 213.491 52.1049 214.977 53.7223C216.463 55.3397 217.6 57.1976 218.387 59.2959C219.174 61.3505 219.567 63.5799 219.567 65.9842C219.567 66.5962 219.523 67.2301 219.436 67.8858C219.392 68.5415 219.283 69.1098 219.108 69.5907H191.568V63.0335H214.256L210.19 66.1154C210.584 64.1045 210.474 62.3122 209.862 60.7385C209.294 59.1648 208.332 57.9189 206.977 57.0009C205.666 56.0829 204.07 55.6239 202.19 55.6239C200.398 55.6239 198.803 56.0829 197.404 57.0009C196.005 57.8752 194.934 59.1866 194.191 60.9352C193.491 62.6401 193.229 64.7165 193.404 67.1645C193.229 69.3502 193.513 71.2955 194.256 73.0004C195.043 74.6615 196.18 75.9511 197.666 76.8691C199.196 77.7871 200.945 78.2461 202.912 78.2461C204.879 78.2461 206.54 77.8308 207.895 77.0003C209.294 76.1697 210.387 75.055 211.174 73.6561L218.124 77.0658C217.425 78.7707 216.332 80.2788 214.846 81.5903C213.36 82.9017 211.589 83.929 209.535 84.6721C207.524 85.4153 205.294 85.7869 202.846 85.7869ZM226.079 85V35.3622H234.668V85H226.079ZM253.419 85.7869C250.927 85.7869 248.763 85.3716 246.927 84.541C245.091 83.7104 243.671 82.5301 242.665 81.0001C241.66 79.4264 241.157 77.6123 241.157 75.5577C241.157 73.5905 241.594 71.8419 242.468 70.3119C243.343 68.7382 244.698 67.4268 246.534 66.3776C248.37 65.3285 250.687 64.5853 253.484 64.1482L265.156 62.2466V68.8038L255.124 70.5087C253.419 70.8147 252.151 71.3611 251.321 72.148C250.49 72.9348 250.075 73.9621 250.075 75.2298C250.075 76.4538 250.534 77.4374 251.452 78.1805C252.413 78.88 253.594 79.2297 254.993 79.2297C256.785 79.2297 258.359 78.8581 259.714 78.115C261.113 77.3281 262.184 76.2571 262.927 74.902C263.714 73.5468 264.107 72.0605 264.107 70.4431V61.2631C264.107 59.733 263.495 58.4653 262.271 57.4599C261.091 56.4107 259.517 55.8862 257.55 55.8862C255.714 55.8862 254.075 56.3889 252.632 57.3943C251.233 58.356 250.206 59.6456 249.55 61.2631L242.534 57.8533C243.233 55.9736 244.326 54.3562 245.813 53.001C247.343 51.6022 249.135 50.5093 251.189 49.7224C253.244 48.9356 255.473 48.5421 257.878 48.5421C260.807 48.5421 263.386 49.0886 265.615 50.1814C267.845 51.2306 269.571 52.7169 270.795 54.6403C272.063 56.52 272.697 58.7276 272.697 61.2631V85H264.566V78.9018L266.402 78.7707C265.484 80.3007 264.391 81.5903 263.123 82.6394C261.856 83.6449 260.413 84.4317 258.796 85C257.178 85.5246 255.386 85.7869 253.419 85.7869ZM291.456 85.7869C288.964 85.7869 286.8 85.3716 284.964 84.541C283.128 83.7104 281.707 82.5301 280.702 81.0001C279.696 79.4264 279.194 77.6123 279.194 75.5577C279.194 73.5905 279.631 71.8419 280.505 70.3119C281.379 68.7382 282.735 67.4268 284.571 66.3776C286.407 65.3285 288.723 64.5853 291.521 64.1482L303.193 62.2466V68.8038L293.16 70.5087C291.456 70.8147 290.188 71.3611 289.357 72.148C288.527 72.9348 288.111 73.9621 288.111 75.2298C288.111 76.4538 288.57 77.4374 289.488 78.1805C290.45 78.88 291.63 79.2297 293.029 79.2297C294.822 79.2297 296.395 78.8581 297.75 78.115C299.149 77.3281 300.22 76.2571 300.963 74.902C301.75 73.5468 302.144 72.0605 302.144 70.4431V61.2631C302.144 59.733 301.532 58.4653 300.308 57.4599C299.127 56.4107 297.554 55.8862 295.587 55.8862C293.751 55.8862 292.111 56.3889 290.669 57.3943C289.27 58.356 288.243 59.6456 287.587 61.2631L280.571 57.8533C281.27 55.9736 282.363 54.3562 283.849 53.001C285.379 51.6022 287.172 50.5093 289.226 49.7224C291.281 48.9356 293.51 48.5421 295.914 48.5421C298.843 48.5421 301.422 49.0886 303.652 50.1814C305.881 51.2306 307.608 52.7169 308.832 54.6403C310.1 56.52 310.734 58.7276 310.734 61.2631V85H302.603V78.9018L304.439 78.7707C303.521 80.3007 302.428 81.5903 301.16 82.6394C299.892 83.6449 298.45 84.4317 296.832 85C295.215 85.5246 293.423 85.7869 291.456 85.7869ZM318.673 85V35.3622H327.263V56.3452L326.083 55.0993C326.913 52.9573 328.268 51.3399 330.148 50.247C332.071 49.1104 334.301 48.5421 336.836 48.5421C339.459 48.5421 341.776 49.1104 343.787 50.247C345.841 51.3836 347.437 52.9792 348.574 55.0337C349.71 57.0446 350.278 59.3833 350.278 62.0499V85H341.689V64.0826C341.689 62.5089 341.383 61.1538 340.771 60.0172C340.159 58.8806 339.306 58.0063 338.213 57.3943C337.164 56.7386 335.918 56.4107 334.476 56.4107C333.077 56.4107 331.831 56.7386 330.738 57.3943C329.645 58.0063 328.793 58.8806 328.181 60.0172C327.569 61.1538 327.263 62.5089 327.263 64.0826V85H318.673Z" fill="#4AAFE9"/>
<path d="M358.263 85V36.1491H367.181V61.5909L364.755 60.7385L385.541 36.1491H396.754L377.279 59.2303L377.804 52.9354L397.344 85H386.853L373.738 63.4925L367.181 71.2955V85H358.263ZM412.225 85.7869C409.734 85.7869 407.57 85.3716 405.734 84.541C403.898 83.7104 402.477 82.5301 401.472 81.0001C400.466 79.4264 399.963 77.6123 399.963 75.5577C399.963 73.5905 400.401 71.8419 401.275 70.3119C402.149 68.7382 403.504 67.4268 405.34 66.3776C407.176 65.3285 409.493 64.5853 412.291 64.1482L423.963 62.2466V68.8038L413.93 70.5087C412.225 70.8147 410.958 71.3611 410.127 72.148C409.296 72.9348 408.881 73.9621 408.881 75.2298C408.881 76.4538 409.34 77.4374 410.258 78.1805C411.22 78.88 412.4 79.2297 413.799 79.2297C415.591 79.2297 417.165 78.8581 418.52 78.115C419.919 77.3281 420.99 76.2571 421.733 74.902C422.52 73.5468 422.913 72.0605 422.913 70.4431V61.2631C422.913 59.733 422.301 58.4653 421.077 57.4599C419.897 56.4107 418.323 55.8862 416.356 55.8862C414.52 55.8862 412.881 56.3889 411.438 57.3943C410.04 58.356 409.012 59.6456 408.357 61.2631L401.34 57.8533C402.04 55.9736 403.133 54.3562 404.619 53.001C406.149 51.6022 407.941 50.5093 409.996 49.7224C412.05 48.9356 414.28 48.5421 416.684 48.5421C419.613 48.5421 422.192 49.0886 424.422 50.1814C426.651 51.2306 428.378 52.7169 429.602 54.6403C430.869 56.52 431.503 58.7276 431.503 61.2631V85H423.372V78.9018L425.208 78.7707C424.29 80.3007 423.198 81.5903 421.93 82.6394C420.662 83.6449 419.22 84.4317 417.602 85C415.985 85.5246 414.192 85.7869 412.225 85.7869ZM439.443 85V49.329H447.508V57.2632L446.852 56.0829C447.683 53.4163 448.972 51.5584 450.721 50.5093C452.513 49.4601 454.655 48.9356 457.147 48.9356H459.245V56.5419H456.163C453.715 56.5419 451.748 57.3069 450.262 58.8369C448.776 60.3232 448.033 62.4215 448.033 65.1318V85H439.443ZM463.968 85V49.329H472.558V85H463.968ZM463.968 45.3291V36.1491H472.558V45.3291H463.968ZM497.406 85.7869C493.734 85.7869 490.521 84.9563 487.767 83.2951C485.013 81.634 482.871 79.3827 481.341 76.5413C479.811 73.6998 479.046 70.5524 479.046 67.0989C479.046 63.5143 479.811 60.345 481.341 57.591C482.915 54.7933 485.035 52.5857 487.702 50.9683C490.412 49.3509 493.428 48.5421 496.751 48.5421C499.548 48.5421 501.996 49.0011 504.095 49.9192C506.237 50.8372 508.051 52.1049 509.537 53.7223C511.024 55.3397 512.16 57.1976 512.947 59.2959C513.734 61.3505 514.127 63.5799 514.127 65.9842C514.127 66.5962 514.084 67.2301 513.996 67.8858C513.952 68.5415 513.843 69.1098 513.668 69.5907H486.128V63.0335H508.816L504.751 66.1154C505.144 64.1045 505.035 62.3122 504.423 60.7385C503.854 59.1648 502.893 57.9189 501.537 57.0009C500.226 56.0829 498.63 55.6239 496.751 55.6239C494.958 55.6239 493.363 56.0829 491.964 57.0009C490.565 57.8752 489.494 59.1866 488.751 60.9352C488.052 62.6401 487.789 64.7165 487.964 67.1645C487.789 69.3502 488.073 71.2955 488.817 73.0004C489.603 74.6615 490.74 75.9511 492.226 76.8691C493.756 77.7871 495.505 78.2461 497.472 78.2461C499.439 78.2461 501.1 77.8308 502.455 77.0003C503.854 76.1697 504.947 75.055 505.734 73.6561L512.685 77.0658C511.985 78.7707 510.892 80.2788 509.406 81.5903C507.92 82.9017 506.149 83.929 504.095 84.6721C502.084 85.4153 499.854 85.7869 497.406 85.7869ZM520.639 85V49.329H528.704V57.2632L528.048 56.0829C528.879 53.4163 530.169 51.5584 531.917 50.5093C533.709 49.4601 535.851 48.9356 538.343 48.9356H540.441V56.5419H537.36C534.912 56.5419 532.944 57.3069 531.458 58.8369C529.972 60.3232 529.229 62.4215 529.229 65.1318V85H520.639Z" fill="#306E94"/>
<path d="M85 0C94.3888 1.09524e-06 102 7.61116 102 17V101C102 110.389 94.3888 118 85 118H17C7.61116 118 0 110.389 0 101V17C1.73961e-06 7.61116 7.61116 2.7381e-07 17 0H85ZM19.0088 8.24023C12.2601 8.24038 6.78921 13.7113 6.78906 20.46V97.54C6.78906 104.289 12.26 109.76 19.0088 109.76H81.9893C88.7381 109.76 94.209 104.289 94.209 97.54V20.46C94.2088 13.7112 88.738 8.24035 81.9893 8.24023H19.0088Z" fill="#306E94"/>
<path d="M60.5936 80.9576L22.454 81.0063C20.5567 81.0063 19.0486 79.4963 19 77.5966V76.6711C19 74.7715 20.5081 73.2615 22.4053 73.2128L60.5449 73.1641C62.4422 73.1641 63.9502 74.6741 63.9989 76.5737V77.4992C64.0475 79.4476 62.4908 80.9576 60.5936 80.9576Z" fill="#306E94"/>
<path d="M50.2785 94.0601L22.5008 94.1088C20.6036 94.1088 19.0955 92.5988 19.0469 90.6992V89.7737C19.0469 87.874 20.5549 86.364 22.4522 86.3153L50.2299 86.2666C52.1271 86.2666 53.6352 87.7766 53.6839 89.6763V90.6018C53.7325 92.5014 52.1758 94.0601 50.2785 94.0601Z" fill="#4AAFE9"/>
<path d="M27.4832 77.9696L27.5085 77.9654C27.5253 77.9682 27.5366 77.9808 27.5422 78.0033L27.578 78.9022L27.5695 78.938L27.5443 78.9717L27.3253 79.1275L27.3001 79.1359L27.2685 79.1275L27.0495 78.9717L27.0285 78.9443L27.018 78.9022L27.0538 78.0012L27.0622 77.9801C27.0734 77.9661 27.0902 77.9619 27.1127 77.9675L27.2622 78.0433L27.2917 78.0517L27.3338 78.0433L27.4832 77.9696Z" fill="#306E94"/>
<path d="M28.0348 77.7317L28.0643 77.7275C28.0853 77.7317 28.0994 77.7471 28.1064 77.7738L28.178 79.0664L28.1695 79.0959C28.1555 79.1141 28.1352 79.1198 28.1085 79.1127L27.6853 78.9191L27.6685 78.9022L27.658 78.8769L27.6201 77.9717L27.6264 77.9485L27.6474 77.9275L28.0348 77.7317Z" fill="#306E94"/>
<path d="M26.5281 77.7266C26.5387 77.7242 26.5497 77.7261 26.559 77.7317L26.9464 77.9254L26.9674 77.9464L26.9738 77.9717L26.9359 78.8769L26.9295 78.9001L26.9085 78.9169L26.4853 79.1127L26.4538 79.1169C26.4313 79.1085 26.4194 79.0917 26.418 79.0664L26.4895 77.7738L26.5022 77.7443C26.5082 77.7353 26.5175 77.7289 26.5281 77.7266Z" fill="#306E94"/>
<path fill-rule="evenodd" clip-rule="evenodd" d="M44.2632 25C45.9382 25 47.5447 25.6654 48.7291 26.8499C49.9135 28.0343 50.5789 29.6407 50.5789 31.3158H56.8947C58.0114 31.3158 59.0824 31.7594 59.872 32.549C60.6617 33.3387 61.1053 34.4096 61.1053 35.5263V56.5789C61.1053 57.6956 60.6617 58.7666 59.872 59.5562C59.0824 60.3459 58.0114 60.7895 56.8947 60.7895H23.2105C22.0938 60.7895 21.0229 60.3459 20.2332 59.5562C19.4436 58.7666 19 57.6956 19 56.5789V35.5263C19 34.4096 19.4436 33.3387 20.2332 32.549C21.0229 31.7594 22.0938 31.3158 23.2105 31.3158H29.5263C29.5263 29.6407 30.1917 28.0343 31.3762 26.8499C32.5606 25.6654 34.1671 25 35.8421 25H44.2632ZM31.6316 33.4211C31.1159 33.4211 30.6182 33.6104 30.2329 33.9531C29.8476 34.2957 29.6014 34.7679 29.5411 35.28L29.5263 35.5263V56.5789C29.5269 57.1155 29.7324 57.6316 30.1007 58.0218C30.4691 58.412 30.9725 58.6468 31.5082 58.6783C32.0439 58.7097 32.5713 58.5354 32.9828 58.191C33.3943 57.8466 33.6587 57.3581 33.7221 56.8253L33.7368 56.5789V35.5263C33.7368 34.968 33.515 34.4325 33.1202 34.0377C32.7254 33.6429 32.1899 33.4211 31.6316 33.4211ZM48.4737 33.4211C47.9153 33.4211 47.3799 33.6429 46.985 34.0377C46.5902 34.4325 46.3684 34.968 46.3684 35.5263V56.5789C46.3684 57.1373 46.5902 57.6728 46.985 58.0676C47.3799 58.4624 47.9153 58.6842 48.4737 58.6842C49.032 58.6842 49.5675 58.4624 49.9623 58.0676C50.3571 57.6728 50.5789 57.1373 50.5789 56.5789V35.5263C50.5789 34.968 50.3571 34.4325 49.9623 34.0377C49.5675 33.6429 49.032 33.4211 48.4737 33.4211ZM44.2632 29.2105H35.8421C35.3265 29.2106 34.8288 29.3999 34.4434 29.7426C34.0581 30.0852 33.8119 30.5574 33.7516 31.0695L33.7368 31.3158H46.3684C46.3684 30.8001 46.179 30.3024 45.8364 29.9171C45.4937 29.5318 45.0216 29.2856 44.5095 29.2253L44.2632 29.2105Z" fill="#306E94"/>
<circle cx="95.607" cy="93.5064" r="21.5643" fill="white" stroke="white" stroke-width="6.28958"/>
<path d="M95.626 63.8594C100.604 63.9424 105.474 65.3368 109.745 67.9062C114.153 70.5585 117.756 74.3621 120.164 78.9082C122.573 83.4545 123.697 88.5719 123.415 93.709C123.181 97.9691 121.986 102.109 119.937 105.825L133.724 119.622H133.723C134.457 120.326 135.049 121.166 135.464 122.097C135.894 123.061 136.125 124.102 136.144 125.157C136.162 126.213 135.968 127.261 135.572 128.24C135.177 129.219 134.588 130.109 133.842 130.855C133.095 131.602 132.206 132.191 131.228 132.586C130.249 132.981 129.2 133.176 128.145 133.157C127.089 133.139 126.047 132.907 125.083 132.478C124.152 132.063 123.313 131.47 122.608 130.735V130.736L108.81 116.948C105.714 118.653 102.32 119.77 98.7998 120.227C94.4092 120.796 89.9453 120.327 85.7686 118.858C81.5921 117.39 77.8186 114.962 74.751 111.77C71.6832 108.577 69.4069 104.709 68.1055 100.478C66.8041 96.2458 66.514 91.7677 67.2578 87.4033C68.0016 83.0388 69.759 78.9095 72.3887 75.3477C75.0183 71.7859 78.4466 68.8905 82.3984 66.8945C86.3504 64.8985 90.7161 63.8578 95.1436 63.8555L95.626 63.8594ZM95.1445 79.5791C91.8085 79.5792 88.609 80.9047 86.25 83.2637C83.891 85.6227 82.5655 88.8221 82.5654 92.1582C82.5654 95.4943 83.8911 98.6937 86.25 101.053C88.609 103.412 91.8085 104.737 95.1445 104.737C98.4807 104.737 101.681 103.412 104.04 101.053C106.399 98.6937 107.724 95.4942 107.724 92.1582C107.724 88.8222 106.399 85.6227 104.04 83.2637C101.681 80.9046 98.4807 79.5791 95.1445 79.5791Z" fill="#306E94" stroke="white" stroke-width="6.28958"/>
<circle cx="95" cy="92" r="16" fill="#F7A32C"/>
<circle cx="95" cy="92" r="16" stroke="white"/>
<path d="M95.5161 96.8938C95.8823 96.865 96.2506 96.9096 96.5993 97.0251C96.9481 97.1406 97.2702 97.3246 97.5468 97.5663C97.8235 97.808 98.0491 98.1025 98.2103 98.4326C98.3716 98.7627 98.4652 99.1217 98.4858 99.4885C98.5064 99.8552 98.4536 100.222 98.3303 100.569C98.207 100.915 98.0159 101.233 97.7681 101.504C97.5202 101.775 97.2207 101.994 96.8871 102.148C96.5535 102.301 96.1925 102.387 95.8254 102.399C95.105 102.424 94.4038 102.165 93.8718 101.679C93.3397 101.193 93.0192 100.517 92.9787 99.7979C92.9383 99.0782 93.1812 98.3714 93.6554 97.8286C94.1297 97.2858 94.7975 96.9503 95.5161 96.8938ZM94.746 83.1258C95.2937 83.0952 95.8312 83.2834 96.2402 83.649C96.6491 84.0147 96.8961 84.5278 96.9267 85.0755L97.3887 93.3363C97.4194 93.884 97.2312 94.4215 96.8655 94.8304C96.4999 95.2394 95.9868 95.4863 95.4391 95.517C94.8913 95.5476 94.3539 95.3594 93.9449 94.9938C93.536 94.6281 93.289 94.115 93.2584 93.5673L92.7963 85.3065C92.7657 84.7588 92.9539 84.2214 93.3195 83.8124C93.6852 83.4034 94.1983 83.1565 94.746 83.1258Z" fill="white"/>
<rect x="27" y="1" width="47" height="13" rx="6" fill="#306E94"/>
</svg>
